<?xml version="1.0" encoding="iso-8859-1"?>
<!-- Generator: Adobe Illustrator 18.0.0, SVG Export Plug-In . SVG Version: 6.00 Build 0)  -->
<!DOCTYPE svg PUBLIC "-//W3C//DTD SVG 1.1//EN" "http://www.w3.org/Graphics/SVG/1.1/DTD/svg11.dtd">
<svg xmlns="http://www.w3.org/2000/svg" xmlns:xlink="http://www.w3.org/1999/xlink" version="1.1" id="Capa_1" x="0px" y="0px" viewBox="0 0 275.74 275.74" style="enable-background:new 0 0 275.74 275.74;" xml:space="preserve" width="512px" height="512px">
<g>
	<path d="M225.491,160.325c-13.293-41.009-60.47-46.13-95.462-32.788c-0.15-0.098-0.33-0.146-0.538-0.085   c-35.202,10.352-45.017,53.487-32.301,84.426c13.499,32.844,48.677,49.416,82.506,37.818   C212.834,238.336,236.55,194.443,225.491,160.325z M176.033,246.95c-71.322,21.553-110.631-80.081-49.4-116.216   c0.249,0.74,0.919,1.272,1.862,0.889c33.124-13.45,80.681-10.558,93.522,29.661C232.59,194.403,208.27,237.208,176.033,246.95z" fill="#6a3c46"/>
	<path d="M238.396,145.307c-20.355-47.578-76.606-54.974-120.738-39.575   c-1.509-2.158-3.835-3.846-5.566-5.839c-1.746-2.012-3.294-4.188-4.729-6.433c2.306-2.568,4.208-5.54,5.522-8.846   c1.336-0.298,2.387-1.639,1.363-3.039c-9.563-13.06-18.858-26.288-27.616-39.905C79.635,30.791,73.901,17.663,64.975,8.206   C56.386-0.896,41.301-3.997,35.248,7.118c-9.553,10.575-3.733,20.221,3.635,33.069c12.391,21.608,27.42,41.633,43.332,60.749   c-0.193,0.848,0.286,1.901,1.429,2.011c4.138,0.399,8.139-0.234,11.861-1.558c0.954,2.758,2.298,5.443,3.907,7.868   c1.357,2.045,3.003,4.507,5.176,5.828c-32.191,22.949-43.077,78.705-27.723,112.246c19.951,43.584,73.061,60.191,115.596,39.684   C236.335,245.862,257.584,190.159,238.396,145.307z M84.896,99.776C72.461,82.058,28.892,36.404,37.902,11.335   c12.794-7.208,22.042-5.762,27.656,4.551c1.583,2.405,3.094,4.856,4.532,7.35c4.221,6.905,8.362,13.848,12.732,20.661   c8.465,13.196,17.435,26.054,26.802,38.624C105.686,92.906,95.835,99.443,84.896,99.776z M101.721,107.367   c-1.632-2.108-2.996-4.344-4.359-6.624c3.091-1.349,5.906-3.268,8.36-5.599c1.146,2.301,2.408,4.523,3.97,6.599   c1.621,2.154,3.513,4.867,5.944,6.183c0.018,0.308,0.085,0.612,0.224,0.88c-3.182,1.31-6.189,2.94-9.057,4.795   C105.593,111.29,103.312,109.422,101.721,107.367z M198.543,258.551c-42.352,26.678-102.02,10.174-120.101-37.854   c-14.968-39.759,5.914-94.498,44.509-112.521c38.618-10.889,85.058-7.637,107.298,30.696   C253.741,179.363,237.378,234.09,198.543,258.551z" fill="#6a3c46"/>
	<path d="M57.957,16.197c-2.087-4.224-7.213-6.169-11.466-4.133c-0.304-0.135-0.639-0.201-0.986-0.121   c-4.548,1.051-5.237,7.793-3.771,11.351c1.907,4.628,7.093,6.282,11.541,4.249C57.566,25.581,60.166,20.668,57.957,16.197z    M51.219,24.406c-2.769,0.946-5.447-0.371-6.23-3.21c-0.842-3.051,0.765-4.639,2.263-6.981c0.075-0.118,0.051-0.236,0.089-0.356   c2.964-0.662,6.424,1.07,7.54,3.972C55.985,20.706,53.917,23.484,51.219,24.406z" fill="#6a3c46"/>
	<path d="M183.599,241.727c-13.723,0.368-27.558,1.209-41.288,1.803c-0.593,0.026-0.578,0.859,0,0.912   c13.453,1.228,28.157,1.061,41.509-1.08C184.754,243.213,184.525,241.703,183.599,241.727z" fill="#6a3c46"/>
	<path d="M199.985,231.227c-15.423,1.841-30.294,3.738-45.874,3.376c-0.909-0.022-0.901,1.362,0,1.408   c15.215,0.775,31.219,0.487,46.103-3.09C201.138,232.7,200.966,231.109,199.985,231.227z" fill="#6a3c46"/>
	<path d="M210.885,220.711c-9.576,1.376-18.896,3.407-28.593,3.981c-1.188,0.07-1.209,1.896,0,1.864   c9.625-0.256,19.885-1.066,28.998-4.372C212.232,221.841,211.846,220.573,210.885,220.711z" fill="#6a3c46"/>
	<path d="M218.336,209.564c-9.213,0.934-18.258,1.85-27.528,1.949c-1.121,0.012-1.099,1.649,0,1.725   c9.225,0.637,18.751,0.26,27.77-1.882C219.556,211.123,219.375,209.459,218.336,209.564z" fill="#6a3c46"/>
	<path d="M218.984,197.776c-6.567,0.102-13.081,0.75-19.66,0.655c-1.113-0.017-1.105,1.673,0,1.725   c6.602,0.312,13.362,0.496,19.889-0.686C220.18,199.295,219.941,197.761,218.984,197.776z" fill="#6a3c46"/>
	<path d="M226.257,184.329c-7.101,0.397-13.868,1.465-21.023,1.031c-0.929-0.057-0.898,1.334,0,1.427   c6.87,0.714,14.529,1.187,21.271-0.627C227.497,185.893,227.327,184.269,226.257,184.329z" fill="#6a3c46"/>
	<path d="M226.201,175.243c-7.107-0.512-14.527,0.492-21.643,0.872c-0.721,0.038-0.733,1.131,0,1.13   c7.118-0.004,14.577,0.594,21.643-0.297C227.273,176.815,227.323,175.324,226.201,175.243z" fill="#6a3c46"/>
	<path d="M224.906,167.076c-6.99,0.05-13.998,0.974-20.994,1.203c-1.12,0.037-1.128,1.74,0,1.745   c7.025,0.028,14.32,0.229,21.273-0.884C226.373,168.95,226.065,167.068,224.906,167.076z" fill="#6a3c46"/>
	<path d="M224.879,157.805c-8.165-0.832-16.694-0.542-24.9-0.44c-0.888,0.011-0.872,1.312,0,1.368   c8.192,0.528,16.702,1.265,24.9,0.857C226.044,159.531,226.009,157.92,224.879,157.805z" fill="#6a3c46"/>
	<path d="M216.367,144.638c-14.289-1.224-28.897-0.375-43.257-1.102c-0.971-0.049-0.962,1.445,0,1.508   c14.166,0.917,29.106,2.483,43.257,1.042C217.291,145.991,217.305,144.718,216.367,144.638z" fill="#6a3c46"/>
	<path d="M205.492,135.42c-13.951-1.901-28.147-2.505-42.205-2.96c-0.797-0.026-0.783,1.176,0,1.23   c14.008,0.959,27.945,2.606,41.935,3.737C206.353,137.517,206.636,135.575,205.492,135.42z" fill="#6a3c46"/>
</g>
<g>
</g>
<g>
</g>
<g>
</g>
<g>
</g>
<g>
</g>
<g>
</g>
<g>
</g>
<g>
</g>
<g>
</g>
<g>
</g>
<g>
</g>
<g>
</g>
<g>
</g>
<g>
</g>
<g>
</g>
</svg>
